<svg xmlns="http://www.w3.org/2000/svg" version="1.1" id="Calque_1" x="0" y="0" viewBox="0 0 200 200" xml:space="preserve"><style id="style2">.st0{fill:#d27c74}.st2{fill:#fff}</style><circle class="st0" cx="100" cy="100" id="circle4" r="100" fill="#d27c74" stroke-width="1"/><circle cx="99.898" cy="100" stroke-miterlimit="10" id="circle6" r="92.418" fill="none" stroke="#fff" stroke-width="1.5"/><path class="st2" d="M30.225 125.205h-1.024l26.024-60.86.923-.41 21.926 61.27h-7.377l-6.763-19.16h-25.41zM52.46 73.668l-13.627 31.455h24.795zm40.369-9.324c2.561-.102 5.02-.205 7.48-.205 2.458 0 5.122.308 7.786.82 2.767.512 5.43 1.537 8.197 2.869 2.664 1.434 5.02 3.279 6.865 5.43 1.844 2.254 3.38 5.123 4.61 8.812 1.127 3.688 1.742 8.094 1.742 13.32 0 5.225-.82 9.938-2.561 14.036-1.742 4.099-3.996 7.275-6.967 9.529-5.738 4.303-12.705 6.455-20.8 6.455a134.1 134.1 0 01-8.914-.308h-4.303V64.344zm.307 60.144a54.25 54.25 0 004.61.205c1.845 0 3.28 0 4.202-.103.922-.102 2.151-.307 3.79-.717a19.647 19.647 0 004.509-1.742c1.434-.717 2.869-1.844 4.406-3.381 1.537-1.434 2.869-3.279 3.996-5.225 2.459-4.714 3.688-10.964 3.688-18.648 0-5.43-.717-10.143-2.05-14.14-1.331-3.995-2.868-6.864-4.61-8.81a18.727 18.727 0 00-6.25-4.611c-2.459-1.127-4.405-1.742-5.84-1.947-1.434-.205-3.176-.308-5.02-.308-1.845 0-3.791.103-5.533.308v59.119zm60.451.717h-7.172V65.164h-15.062v-.82h37.398v.82h-15.164zM37.398 140.369h-1.64l-.717-2.05h-2.766l-.718 2.05h-1.639l2.971-7.685h1.64zm-3.791-6.045l-1.025 2.971h2.05zm13.012-.308h-2.664v6.353h-1.64v-6.353h-2.663v-1.332h6.967zm8.094 0h-3.586v1.742h3.279v1.332h-3.279v1.947h3.689v1.332h-5.328v-7.685h5.225zm4.816 5.02h3.688v1.435H57.89v-7.684h1.537v6.25zm8.299 1.333H66.29v-7.685h1.537zm8.709-6.353H72.95v1.742h3.279v1.332h-3.28v1.947h3.69v1.332H71.31v-7.685h5.226zm7.787 6.353l-1.537-2.664h-1.332v2.664h-1.537v-7.685h2.664c2.254 0 3.381.82 3.381 2.46 0 1.126-.512 1.844-1.537 2.254l1.844 2.97zm-1.844-6.353h-1.025v2.46h1.025c1.229 0 1.844-.513 1.844-1.23-.103-.82-.615-1.23-1.844-1.23zm14.241 6.353H94.16v-7.685h2.561c2.972 0 4.611 1.127 4.611 3.791 0 2.46-1.537 3.894-4.61 3.894zm0-6.353H95.8v4.918h.922c2.05 0 2.972-.82 2.972-2.561 0-1.537-.923-2.357-2.972-2.357zm14.447 2.87c0 2.356-1.025 3.585-3.381 3.585-2.357 0-3.381-1.127-3.381-3.586v-4.2h1.537v4.303c0 1.434.614 2.151 1.844 2.151s1.844-.614 1.844-2.151v-4.304h1.537zm14.754-2.87h-2.664v6.353h-1.537v-6.353h-2.664v-1.332h6.968v1.332zm7.275 6.353l-1.537-2.664h-1.332v2.664h-1.537v-7.685h2.664c2.254 0 3.381.82 3.381 2.46 0 1.126-.512 1.844-1.537 2.254l1.844 2.97zm-1.845-6.353h-1.024v2.46h1.024c1.23 0 1.845-.513 1.845-1.23 0-.82-.615-1.23-1.845-1.23zm8.402 6.353h-1.537v-7.685h1.537zm7.275-7.787c1.537 0 2.151.512 2.561.82l-.615 1.23c-.307-.206-.82-.616-1.844-.616-1.332 0-2.459.82-2.459 2.562 0 1.844 1.025 2.561 2.357 2.561 1.127 0 1.741-.41 1.946-.614l.513 1.23c-.308.306-1.127.819-2.664.819-2.152 0-3.791-1.23-3.791-3.996 0-2.767 1.947-3.996 3.996-3.996zm9.016 7.89c-2.356 0-3.79-1.435-3.79-3.997 0-2.561 1.536-3.995 3.79-3.995 2.357 0 3.791 1.434 3.791 3.995 0 2.562-1.537 3.996-3.79 3.996zm0-6.558c-1.332 0-2.254.922-2.254 2.561 0 1.64.922 2.562 2.254 2.562 1.332 0 2.254-.922 2.254-2.562 0-1.639-.922-2.561-2.254-2.561zm13.32.102H166.7v6.353h-1.537v-6.353H162.5v-1.332h6.967v1.332z" id="path8" fill="#fff" stroke-width="1"/><g id="g14" transform="translate(-2.766 -2.766) scale(1.02459)" stroke-width=".976"><path class="st2" d="M10.3 108.3c-3.1-.1-5.5-2.7-5.4-5.8.1-3 2.6-5.4 5.6-5.4h.2c1.5.1 2.9.7 3.9 1.8s1.6 2.5 1.5 4c-.1 3-2.6 5.4-5.6 5.4z" id="path10" fill="#fff" stroke-width=".976"/><path class="st0" d="M10.5 99.1h.1c2 .1 3.6 1.7 3.5 3.7-.1 2-1.7 3.5-3.6 3.5h-.1c-2-.1-3.6-1.7-3.5-3.7 0-2 1.7-3.5 3.6-3.5m0-4c-4.1 0-7.5 3.2-7.6 7.4-.1 2 .7 4 2 5.5 1.4 1.5 3.3 2.3 5.3 2.4h.3c4.1 0 7.5-3.2 7.6-7.4.1-2-.7-4-2-5.5-1.4-1.5-3.3-2.3-5.3-2.4z" id="path12" fill="#d27c74" stroke-width=".976"/></g><g id="g20" transform="translate(-2.766 -2.766) scale(1.02459)" stroke-width=".976"><path class="st2" d="M190.3 106.9c-2.8-.1-5-2.5-4.9-5.3.1-2.8 2.3-4.9 5.1-4.9h.2c1.4 0 2.6.6 3.6 1.6.9 1 1.4 2.3 1.4 3.7-.1 2.8-2.3 4.9-5.1 4.9z" id="path16" fill="#fff" stroke-width=".976"/><path class="st0" d="M190.4 98.2h.1c2 .1 3.6 1.7 3.5 3.7-.1 2-1.7 3.5-3.6 3.5h-.1c-2-.1-3.6-1.7-3.5-3.7.1-2 1.7-3.5 3.6-3.5m0-3c-3.6 0-6.5 2.8-6.6 6.4-.1 1.8.6 3.5 1.8 4.7 1.2 1.2 2.8 2 4.6 2.1h.2c3.6 0 6.5-2.8 6.6-6.4.1-1.8-.6-3.5-1.8-4.7-1.2-1.3-2.8-2-4.6-2.1z" id="path18" fill="#d27c74" stroke-width=".976"/></g></svg>